<svg xmlns="http://www.w3.org/2000/svg" viewBox="0 0 32 32" width="32" height="32">
  <rect width="32" height="32" rx="7" fill="#e7e873"/>
  <polygon fill="#00382b" transform="translate(3, 6.5) scale(0.16) translate(-471.27, -487.37)" points="554.44 556.78 553.78 556.78 529.39 487.37 471.27 487.37 471.27 503.58 486.01 503.58 486.01 588.54 471.27 588.54 471.27 604.74 516.95 604.74 516.95 588.54 502.54 588.54 502.54 507.67 504.18 507.67 539.38 604.91 551.98 604.91 585.87 507.67 587.5 507.67 587.5 588.54 573.1 588.54 573.1 604.74 633.99 604.74 633.99 588.54 618.77 588.54 618.77 503.58 633.99 503.58 633.99 487.37 576.86 487.37 554.44 556.78"/>
</svg>
